<?xml version="1.0" encoding="utf-8" standalone="no"?>
<!DOCTYPE svg PUBLIC "-//W3C//DTD SVG 1.1//EN"
  "http://www.w3.org/Graphics/SVG/1.1/DTD/svg11.dtd">
<!-- Created with matplotlib (http://matplotlib.org/) -->
<svg height="288pt" version="1.1" viewBox="0 0 432 288" width="432pt" xmlns="http://www.w3.org/2000/svg" xmlns:xlink="http://www.w3.org/1999/xlink">
 <defs>
  <style type="text/css">
*{stroke-linecap:butt;stroke-linejoin:round;}
  </style>
 </defs>
 <g id="figure_1">
  <g id="patch_1">
   <path d="M 0 288 
L 432 288 
L 432 0 
L 0 0 
z
"/>
  </g>
  <g id="axes_1">
   <g id="patch_2">
    <path d="M 50.675 212.45 
L 417.7 212.45 
L 417.7 26.8 
L 50.675 26.8 
z
"/>
   </g>
   <g id="patch_3">
    <path clip-path="url(#p7c61ab230e)" d="M 55.504276 212.45 
L 65.162829 212.45 
L 65.162829 35.640476 
L 55.504276 35.640476 
z
" style="fill:#8dd3c7;"/>
   </g>
   <g id="patch_4">
    <path clip-path="url(#p7c61ab230e)" d="M 74.821382 212.45 
L 84.479934 212.45 
L 84.479934 66.452559 
L 74.821382 66.452559 
z
" style="fill:#8dd3c7;"/>
   </g>
   <g id="patch_5">
    <path clip-path="url(#p7c61ab230e)" d="M 94.138487 212.45 
L 103.797039 212.45 
L 103.797039 67.31645 
L 94.138487 67.31645 
z
" style="fill:#8dd3c7;"/>
   </g>
   <g id="patch_6">
    <path clip-path="url(#p7c61ab230e)" d="M 113.455592 212.45 
L 123.114145 212.45 
L 123.114145 88.337777 
L 113.455592 88.337777 
z
" style="fill:#8dd3c7;"/>
   </g>
   <g id="patch_7">
    <path clip-path="url(#p7c61ab230e)" d="M 132.772697 212.45 
L 142.43125 212.45 
L 142.43125 137.867481 
L 132.772697 137.867481 
z
" style="fill:#8dd3c7;"/>
   </g>
   <g id="patch_8">
    <path clip-path="url(#p7c61ab230e)" d="M 152.089803 212.45 
L 161.748355 212.45 
L 161.748355 143.626749 
L 152.089803 143.626749 
z
" style="fill:#8dd3c7;"/>
   </g>
   <g id="patch_9">
    <path clip-path="url(#p7c61ab230e)" d="M 171.406908 212.45 
L 181.065461 212.45 
L 181.065461 160.328626 
L 171.406908 160.328626 
z
" style="fill:#8dd3c7;"/>
   </g>
   <g id="patch_10">
    <path clip-path="url(#p7c61ab230e)" d="M 190.724013 212.45 
L 200.382566 212.45 
L 200.382566 163.784186 
L 190.724013 163.784186 
z
" style="fill:#8dd3c7;"/>
   </g>
   <g id="patch_11">
    <path clip-path="url(#p7c61ab230e)" d="M 210.041118 212.45 
L 219.699671 212.45 
L 219.699671 187.397185 
L 210.041118 187.397185 
z
" style="fill:#8dd3c7;"/>
   </g>
   <g id="patch_12">
    <path clip-path="url(#p7c61ab230e)" d="M 229.358224 212.45 
L 239.016776 212.45 
L 239.016776 187.685148 
L 229.358224 187.685148 
z
" style="fill:#8dd3c7;"/>
   </g>
   <g id="patch_13">
    <path clip-path="url(#p7c61ab230e)" d="M 248.675329 212.45 
L 258.333882 212.45 
L 258.333882 192.580526 
L 248.675329 192.580526 
z
" style="fill:#8dd3c7;"/>
   </g>
   <g id="patch_14">
    <path clip-path="url(#p7c61ab230e)" d="M 267.992434 212.45 
L 277.650987 212.45 
L 277.650987 198.91572 
L 267.992434 198.91572 
z
" style="fill:#8dd3c7;"/>
   </g>
   <g id="patch_15">
    <path clip-path="url(#p7c61ab230e)" d="M 287.309539 212.45 
L 296.968092 212.45 
L 296.968092 202.947208 
L 287.309539 202.947208 
z
" style="fill:#8dd3c7;"/>
   </g>
   <g id="patch_16">
    <path clip-path="url(#p7c61ab230e)" d="M 306.626645 212.45 
L 316.285197 212.45 
L 316.285197 203.523135 
L 306.626645 203.523135 
z
" style="fill:#8dd3c7;"/>
   </g>
   <g id="patch_17">
    <path clip-path="url(#p7c61ab230e)" d="M 325.94375 212.45 
L 335.602303 212.45 
L 335.602303 203.523135 
L 325.94375 203.523135 
z
" style="fill:#8dd3c7;"/>
   </g>
   <g id="patch_18">
    <path clip-path="url(#p7c61ab230e)" d="M 345.260855 212.45 
L 354.919408 212.45 
L 354.919408 204.099062 
L 345.260855 204.099062 
z
" style="fill:#8dd3c7;"/>
   </g>
   <g id="patch_19">
    <path clip-path="url(#p7c61ab230e)" d="M 364.577961 212.45 
L 374.236513 212.45 
L 374.236513 204.674988 
L 364.577961 204.674988 
z
" style="fill:#8dd3c7;"/>
   </g>
   <g id="patch_20">
    <path clip-path="url(#p7c61ab230e)" d="M 383.895066 212.45 
L 393.553618 212.45 
L 393.553618 205.250915 
L 383.895066 205.250915 
z
" style="fill:#8dd3c7;"/>
   </g>
   <g id="patch_21">
    <path clip-path="url(#p7c61ab230e)" d="M 403.212171 212.45 
L 412.870724 212.45 
L 412.870724 205.826842 
L 403.212171 205.826842 
z
" style="fill:#8dd3c7;"/>
   </g>
   <g id="matplotlib.axis_1">
    <g id="xtick_1">
     <g id="line2d_1">
      <defs>
       <path d="M 0 0 
L 0 3.5 
" id="mc5f6506503" style="stroke:#ffffff;stroke-width:0.8;"/>
      </defs>
      <g>
       <use style="fill:#ffffff;stroke:#ffffff;stroke-width:0.8;" x="60.333553" xlink:href="#mc5f6506503" y="212.45"/>
      </g>
     </g>
     <g id="text_1">
      <!-- fabri -->
      <defs>
       <path d="M 37.109375 75.984375 
L 37.109375 68.5 
L 28.515625 68.5 
Q 23.6875 68.5 21.796875 66.546875 
Q 19.921875 64.59375 19.921875 59.515625 
L 19.921875 54.6875 
L 34.71875 54.6875 
L 34.71875 47.703125 
L 19.921875 47.703125 
L 19.921875 0 
L 10.890625 0 
L 10.890625 47.703125 
L 2.296875 47.703125 
L 2.296875 54.6875 
L 10.890625 54.6875 
L 10.890625 58.5 
Q 10.890625 67.625 15.140625 71.796875 
Q 19.390625 75.984375 28.609375 75.984375 
z
" id="DejaVuSans-66"/>
       <path d="M 34.28125 27.484375 
Q 23.390625 27.484375 19.1875 25 
Q 14.984375 22.515625 14.984375 16.5 
Q 14.984375 11.71875 18.140625 8.90625 
Q 21.296875 6.109375 26.703125 6.109375 
Q 34.1875 6.109375 38.703125 11.40625 
Q 43.21875 16.703125 43.21875 25.484375 
L 43.21875 27.484375 
z
M 52.203125 31.203125 
L 52.203125 0 
L 43.21875 0 
L 43.21875 8.296875 
Q 40.140625 3.328125 35.546875 0.953125 
Q 30.953125 -1.421875 24.3125 -1.421875 
Q 15.921875 -1.421875 10.953125 3.296875 
Q 6 8.015625 6 15.921875 
Q 6 25.140625 12.171875 29.828125 
Q 18.359375 34.515625 30.609375 34.515625 
L 43.21875 34.515625 
L 43.21875 35.40625 
Q 43.21875 41.609375 39.140625 45 
Q 35.0625 48.390625 27.6875 48.390625 
Q 23 48.390625 18.546875 47.265625 
Q 14.109375 46.140625 10.015625 43.890625 
L 10.015625 52.203125 
Q 14.9375 54.109375 19.578125 55.046875 
Q 24.21875 56 28.609375 56 
Q 40.484375 56 46.34375 49.84375 
Q 52.203125 43.703125 52.203125 31.203125 
z
" id="DejaVuSans-61"/>
       <path d="M 48.6875 27.296875 
Q 48.6875 37.203125 44.609375 42.84375 
Q 40.53125 48.484375 33.40625 48.484375 
Q 26.265625 48.484375 22.1875 42.84375 
Q 18.109375 37.203125 18.109375 27.296875 
Q 18.109375 17.390625 22.1875 11.75 
Q 26.265625 6.109375 33.40625 6.109375 
Q 40.53125 6.109375 44.609375 11.75 
Q 48.6875 17.390625 48.6875 27.296875 
z
M 18.109375 46.390625 
Q 20.953125 51.265625 25.265625 53.625 
Q 29.59375 56 35.59375 56 
Q 45.5625 56 51.78125 48.09375 
Q 58.015625 40.1875 58.015625 27.296875 
Q 58.015625 14.40625 51.78125 6.484375 
Q 45.5625 -1.421875 35.59375 -1.421875 
Q 29.59375 -1.421875 25.265625 0.953125 
Q 20.953125 3.328125 18.109375 8.203125 
L 18.109375 0 
L 9.078125 0 
L 9.078125 75.984375 
L 18.109375 75.984375 
z
" id="DejaVuSans-62"/>
       <path d="M 41.109375 46.296875 
Q 39.59375 47.171875 37.8125 47.578125 
Q 36.03125 48 33.890625 48 
Q 26.265625 48 22.1875 43.046875 
Q 18.109375 38.09375 18.109375 28.8125 
L 18.109375 0 
L 9.078125 0 
L 9.078125 54.6875 
L 18.109375 54.6875 
L 18.109375 46.1875 
Q 20.953125 51.171875 25.484375 53.578125 
Q 30.03125 56 36.53125 56 
Q 37.453125 56 38.578125 55.875 
Q 39.703125 55.765625 41.0625 55.515625 
z
" id="DejaVuSans-72"/>
       <path d="M 9.421875 54.6875 
L 18.40625 54.6875 
L 18.40625 0 
L 9.421875 0 
z
M 9.421875 75.984375 
L 18.40625 75.984375 
L 18.40625 64.59375 
L 9.421875 64.59375 
z
" id="DejaVuSans-69"/>
      </defs>
      <g style="fill:#ffffff;" transform="translate(63.092928 242.335938)rotate(-90)scale(0.1 -0.1)">
       <use xlink:href="#DejaVuSans-66"/>
       <use x="35.205078" xlink:href="#DejaVuSans-61"/>
       <use x="96.484375" xlink:href="#DejaVuSans-62"/>
       <use x="159.960938" xlink:href="#DejaVuSans-72"/>
       <use x="201.074219" xlink:href="#DejaVuSans-69"/>
      </g>
     </g>
    </g>
    <g id="xtick_2">
     <g id="line2d_2">
      <g>
       <use style="fill:#ffffff;stroke:#ffffff;stroke-width:0.8;" x="79.650658" xlink:href="#mc5f6506503" y="212.45"/>
      </g>
     </g>
     <g id="text_2">
      <!-- fauricio -->
      <defs>
       <path d="M 8.5 21.578125 
L 8.5 54.6875 
L 17.484375 54.6875 
L 17.484375 21.921875 
Q 17.484375 14.15625 20.5 10.265625 
Q 23.53125 6.390625 29.59375 6.390625 
Q 36.859375 6.390625 41.078125 11.03125 
Q 45.3125 15.671875 45.3125 23.6875 
L 45.3125 54.6875 
L 54.296875 54.6875 
L 54.296875 0 
L 45.3125 0 
L 45.3125 8.40625 
Q 42.046875 3.421875 37.71875 1 
Q 33.40625 -1.421875 27.6875 -1.421875 
Q 18.265625 -1.421875 13.375 4.4375 
Q 8.5 10.296875 8.5 21.578125 
z
M 31.109375 56 
z
" id="DejaVuSans-75"/>
       <path d="M 48.78125 52.59375 
L 48.78125 44.1875 
Q 44.96875 46.296875 41.140625 47.34375 
Q 37.3125 48.390625 33.40625 48.390625 
Q 24.65625 48.390625 19.8125 42.84375 
Q 14.984375 37.3125 14.984375 27.296875 
Q 14.984375 17.28125 19.8125 11.734375 
Q 24.65625 6.203125 33.40625 6.203125 
Q 37.3125 6.203125 41.140625 7.25 
Q 44.96875 8.296875 48.78125 10.40625 
L 48.78125 2.09375 
Q 45.015625 0.34375 40.984375 -0.53125 
Q 36.96875 -1.421875 32.421875 -1.421875 
Q 20.0625 -1.421875 12.78125 6.34375 
Q 5.515625 14.109375 5.515625 27.296875 
Q 5.515625 40.671875 12.859375 48.328125 
Q 20.21875 56 33.015625 56 
Q 37.15625 56 41.109375 55.140625 
Q 45.0625 54.296875 48.78125 52.59375 
z
" id="DejaVuSans-63"/>
       <path d="M 30.609375 48.390625 
Q 23.390625 48.390625 19.1875 42.75 
Q 14.984375 37.109375 14.984375 27.296875 
Q 14.984375 17.484375 19.15625 11.84375 
Q 23.34375 6.203125 30.609375 6.203125 
Q 37.796875 6.203125 41.984375 11.859375 
Q 46.1875 17.53125 46.1875 27.296875 
Q 46.1875 37.015625 41.984375 42.703125 
Q 37.796875 48.390625 30.609375 48.390625 
z
M 30.609375 56 
Q 42.328125 56 49.015625 48.375 
Q 55.71875 40.765625 55.71875 27.296875 
Q 55.71875 13.875 49.015625 6.21875 
Q 42.328125 -1.421875 30.609375 -1.421875 
Q 18.84375 -1.421875 12.171875 6.21875 
Q 5.515625 13.875 5.515625 27.296875 
Q 5.515625 40.765625 12.171875 48.375 
Q 18.84375 56 30.609375 56 
z
" id="DejaVuSans-6f"/>
      </defs>
      <g style="fill:#ffffff;" transform="translate(82.410033 256.720312)rotate(-90)scale(0.1 -0.1)">
       <use xlink:href="#DejaVuSans-66"/>
       <use x="35.205078" xlink:href="#DejaVuSans-61"/>
       <use x="96.484375" xlink:href="#DejaVuSans-75"/>
       <use x="159.863281" xlink:href="#DejaVuSans-72"/>
       <use x="200.976562" xlink:href="#DejaVuSans-69"/>
       <use x="228.759766" xlink:href="#DejaVuSans-63"/>
       <use x="283.740234" xlink:href="#DejaVuSans-69"/>
       <use x="311.523438" xlink:href="#DejaVuSans-6f"/>
      </g>
     </g>
    </g>
    <g id="xtick_3">
     <g id="line2d_3">
      <g>
       <use style="fill:#ffffff;stroke:#ffffff;stroke-width:0.8;" x="98.967763" xlink:href="#mc5f6506503" y="212.45"/>
      </g>
     </g>
     <g id="text_3">
      <!-- faubricio -->
      <g style="fill:#ffffff;" transform="translate(101.727138 263.06875)rotate(-90)scale(0.1 -0.1)">
       <use xlink:href="#DejaVuSans-66"/>
       <use x="35.205078" xlink:href="#DejaVuSans-61"/>
       <use x="96.484375" xlink:href="#DejaVuSans-75"/>
       <use x="159.863281" xlink:href="#DejaVuSans-62"/>
       <use x="223.339844" xlink:href="#DejaVuSans-72"/>
       <use x="264.453125" xlink:href="#DejaVuSans-69"/>
       <use x="292.236328" xlink:href="#DejaVuSans-63"/>
       <use x="347.216797" xlink:href="#DejaVuSans-69"/>
       <use x="375" xlink:href="#DejaVuSans-6f"/>
      </g>
     </g>
    </g>
    <g id="xtick_4">
     <g id="line2d_4">
      <g>
       <use style="fill:#ffffff;stroke:#ffffff;stroke-width:0.8;" x="118.284868" xlink:href="#mc5f6506503" y="212.45"/>
      </g>
     </g>
     <g id="text_4">
      <!-- fabrico -->
      <g style="fill:#ffffff;" transform="translate(121.044243 253.953125)rotate(-90)scale(0.1 -0.1)">
       <use xlink:href="#DejaVuSans-66"/>
       <use x="35.205078" xlink:href="#DejaVuSans-61"/>
       <use x="96.484375" xlink:href="#DejaVuSans-62"/>
       <use x="159.960938" xlink:href="#DejaVuSans-72"/>
       <use x="201.074219" xlink:href="#DejaVuSans-69"/>
       <use x="228.857422" xlink:href="#DejaVuSans-63"/>
       <use x="283.837891" xlink:href="#DejaVuSans-6f"/>
      </g>
     </g>
    </g>
    <g id="xtick_5">
     <g id="line2d_5">
      <g>
       <use style="fill:#ffffff;stroke:#ffffff;stroke-width:0.8;" x="137.601974" xlink:href="#mc5f6506503" y="212.45"/>
      </g>
     </g>
     <g id="text_5">
      <!-- frabricio -->
      <g style="fill:#ffffff;" transform="translate(140.361349 260.842188)rotate(-90)scale(0.1 -0.1)">
       <use xlink:href="#DejaVuSans-66"/>
       <use x="35.205078" xlink:href="#DejaVuSans-72"/>
       <use x="76.318359" xlink:href="#DejaVuSans-61"/>
       <use x="137.597656" xlink:href="#DejaVuSans-62"/>
       <use x="201.074219" xlink:href="#DejaVuSans-72"/>
       <use x="242.1875" xlink:href="#DejaVuSans-69"/>
       <use x="269.970703" xlink:href="#DejaVuSans-63"/>
       <use x="324.951172" xlink:href="#DejaVuSans-69"/>
       <use x="352.734375" xlink:href="#DejaVuSans-6f"/>
      </g>
     </g>
    </g>
    <g id="xtick_6">
     <g id="line2d_6">
      <g>
       <use style="fill:#ffffff;stroke:#ffffff;stroke-width:0.8;" x="156.919079" xlink:href="#mc5f6506503" y="212.45"/>
      </g>
     </g>
     <g id="text_6">
      <!-- fabrizio -->
      <defs>
       <path d="M 5.515625 54.6875 
L 48.1875 54.6875 
L 48.1875 46.484375 
L 14.40625 7.171875 
L 48.1875 7.171875 
L 48.1875 0 
L 4.296875 0 
L 4.296875 8.203125 
L 38.09375 47.515625 
L 5.515625 47.515625 
z
" id="DejaVuSans-7a"/>
      </defs>
      <g style="fill:#ffffff;" transform="translate(159.678454 256.48125)rotate(-90)scale(0.1 -0.1)">
       <use xlink:href="#DejaVuSans-66"/>
       <use x="35.205078" xlink:href="#DejaVuSans-61"/>
       <use x="96.484375" xlink:href="#DejaVuSans-62"/>
       <use x="159.960938" xlink:href="#DejaVuSans-72"/>
       <use x="201.074219" xlink:href="#DejaVuSans-69"/>
       <use x="228.857422" xlink:href="#DejaVuSans-7a"/>
       <use x="281.347656" xlink:href="#DejaVuSans-69"/>
       <use x="309.130859" xlink:href="#DejaVuSans-6f"/>
      </g>
     </g>
    </g>
    <g id="xtick_7">
     <g id="line2d_7">
      <g>
       <use style="fill:#ffffff;stroke:#ffffff;stroke-width:0.8;" x="176.236184" xlink:href="#mc5f6506503" y="212.45"/>
      </g>
     </g>
     <g id="text_7">
      <!-- fabrisio -->
      <defs>
       <path d="M 44.28125 53.078125 
L 44.28125 44.578125 
Q 40.484375 46.53125 36.375 47.5 
Q 32.28125 48.484375 27.875 48.484375 
Q 21.1875 48.484375 17.84375 46.4375 
Q 14.5 44.390625 14.5 40.28125 
Q 14.5 37.15625 16.890625 35.375 
Q 19.28125 33.59375 26.515625 31.984375 
L 29.59375 31.296875 
Q 39.15625 29.25 43.1875 25.515625 
Q 47.21875 21.78125 47.21875 15.09375 
Q 47.21875 7.46875 41.1875 3.015625 
Q 35.15625 -1.421875 24.609375 -1.421875 
Q 20.21875 -1.421875 15.453125 -0.5625 
Q 10.6875 0.296875 5.421875 2 
L 5.421875 11.28125 
Q 10.40625 8.6875 15.234375 7.390625 
Q 20.0625 6.109375 24.8125 6.109375 
Q 31.15625 6.109375 34.5625 8.28125 
Q 37.984375 10.453125 37.984375 14.40625 
Q 37.984375 18.0625 35.515625 20.015625 
Q 33.0625 21.96875 24.703125 23.78125 
L 21.578125 24.515625 
Q 13.234375 26.265625 9.515625 29.90625 
Q 5.8125 33.546875 5.8125 39.890625 
Q 5.8125 47.609375 11.28125 51.796875 
Q 16.75 56 26.8125 56 
Q 31.78125 56 36.171875 55.265625 
Q 40.578125 54.546875 44.28125 53.078125 
z
" id="DejaVuSans-73"/>
      </defs>
      <g style="fill:#ffffff;" transform="translate(178.995559 256.442187)rotate(-90)scale(0.1 -0.1)">
       <use xlink:href="#DejaVuSans-66"/>
       <use x="35.205078" xlink:href="#DejaVuSans-61"/>
       <use x="96.484375" xlink:href="#DejaVuSans-62"/>
       <use x="159.960938" xlink:href="#DejaVuSans-72"/>
       <use x="201.074219" xlink:href="#DejaVuSans-69"/>
       <use x="228.857422" xlink:href="#DejaVuSans-73"/>
       <use x="280.957031" xlink:href="#DejaVuSans-69"/>
       <use x="308.740234" xlink:href="#DejaVuSans-6f"/>
      </g>
     </g>
    </g>
    <g id="xtick_8">
     <g id="line2d_8">
      <g>
       <use style="fill:#ffffff;stroke:#ffffff;stroke-width:0.8;" x="195.553289" xlink:href="#mc5f6506503" y="212.45"/>
      </g>
     </g>
     <g id="text_8">
      <!-- mauricio -->
      <defs>
       <path d="M 52 44.1875 
Q 55.375 50.25 60.0625 53.125 
Q 64.75 56 71.09375 56 
Q 79.640625 56 84.28125 50.015625 
Q 88.921875 44.046875 88.921875 33.015625 
L 88.921875 0 
L 79.890625 0 
L 79.890625 32.71875 
Q 79.890625 40.578125 77.09375 44.375 
Q 74.3125 48.1875 68.609375 48.1875 
Q 61.625 48.1875 57.5625 43.546875 
Q 53.515625 38.921875 53.515625 30.90625 
L 53.515625 0 
L 44.484375 0 
L 44.484375 32.71875 
Q 44.484375 40.625 41.703125 44.40625 
Q 38.921875 48.1875 33.109375 48.1875 
Q 26.21875 48.1875 22.15625 43.53125 
Q 18.109375 38.875 18.109375 30.90625 
L 18.109375 0 
L 9.078125 0 
L 9.078125 54.6875 
L 18.109375 54.6875 
L 18.109375 46.1875 
Q 21.1875 51.21875 25.484375 53.609375 
Q 29.78125 56 35.6875 56 
Q 41.65625 56 45.828125 52.96875 
Q 50 49.953125 52 44.1875 
z
" id="DejaVuSans-6d"/>
      </defs>
      <g style="fill:#ffffff;" transform="translate(198.312664 262.940625)rotate(-90)scale(0.1 -0.1)">
       <use xlink:href="#DejaVuSans-6d"/>
       <use x="97.412109" xlink:href="#DejaVuSans-61"/>
       <use x="158.691406" xlink:href="#DejaVuSans-75"/>
       <use x="222.070312" xlink:href="#DejaVuSans-72"/>
       <use x="263.183594" xlink:href="#DejaVuSans-69"/>
       <use x="290.966797" xlink:href="#DejaVuSans-63"/>
       <use x="345.947266" xlink:href="#DejaVuSans-69"/>
       <use x="373.730469" xlink:href="#DejaVuSans-6f"/>
      </g>
     </g>
    </g>
    <g id="xtick_9">
     <g id="line2d_9">
      <g>
       <use style="fill:#ffffff;stroke:#ffffff;stroke-width:0.8;" x="214.870395" xlink:href="#mc5f6506503" y="212.45"/>
      </g>
     </g>
     <g id="text_9">
      <!-- fariseo -->
      <defs>
       <path d="M 56.203125 29.59375 
L 56.203125 25.203125 
L 14.890625 25.203125 
Q 15.484375 15.921875 20.484375 11.0625 
Q 25.484375 6.203125 34.421875 6.203125 
Q 39.59375 6.203125 44.453125 7.46875 
Q 49.3125 8.734375 54.109375 11.28125 
L 54.109375 2.78125 
Q 49.265625 0.734375 44.1875 -0.34375 
Q 39.109375 -1.421875 33.890625 -1.421875 
Q 20.796875 -1.421875 13.15625 6.1875 
Q 5.515625 13.8125 5.515625 26.8125 
Q 5.515625 40.234375 12.765625 48.109375 
Q 20.015625 56 32.328125 56 
Q 43.359375 56 49.78125 48.890625 
Q 56.203125 41.796875 56.203125 29.59375 
z
M 47.21875 32.234375 
Q 47.125 39.59375 43.09375 43.984375 
Q 39.0625 48.390625 32.421875 48.390625 
Q 24.90625 48.390625 20.390625 44.140625 
Q 15.875 39.890625 15.1875 32.171875 
z
" id="DejaVuSans-65"/>
      </defs>
      <g style="fill:#ffffff;" transform="translate(217.62977 253.46875)rotate(-90)scale(0.1 -0.1)">
       <use xlink:href="#DejaVuSans-66"/>
       <use x="35.205078" xlink:href="#DejaVuSans-61"/>
       <use x="96.484375" xlink:href="#DejaVuSans-72"/>
       <use x="137.597656" xlink:href="#DejaVuSans-69"/>
       <use x="165.380859" xlink:href="#DejaVuSans-73"/>
       <use x="217.480469" xlink:href="#DejaVuSans-65"/>
       <use x="279.003906" xlink:href="#DejaVuSans-6f"/>
      </g>
     </g>
    </g>
    <g id="xtick_10">
     <g id="line2d_10">
      <g>
       <use style="fill:#ffffff;stroke:#ffffff;stroke-width:0.8;" x="234.1875" xlink:href="#mc5f6506503" y="212.45"/>
      </g>
     </g>
     <g id="text_10">
      <!-- patricia -->
      <defs>
       <path d="M 18.109375 8.203125 
L 18.109375 -20.796875 
L 9.078125 -20.796875 
L 9.078125 54.6875 
L 18.109375 54.6875 
L 18.109375 46.390625 
Q 20.953125 51.265625 25.265625 53.625 
Q 29.59375 56 35.59375 56 
Q 45.5625 56 51.78125 48.09375 
Q 58.015625 40.1875 58.015625 27.296875 
Q 58.015625 14.40625 51.78125 6.484375 
Q 45.5625 -1.421875 35.59375 -1.421875 
Q 29.59375 -1.421875 25.265625 0.953125 
Q 20.953125 3.328125 18.109375 8.203125 
z
M 48.6875 27.296875 
Q 48.6875 37.203125 44.609375 42.84375 
Q 40.53125 48.484375 33.40625 48.484375 
Q 26.265625 48.484375 22.1875 42.84375 
Q 18.109375 37.203125 18.109375 27.296875 
Q 18.109375 17.390625 22.1875 11.75 
Q 26.265625 6.109375 33.40625 6.109375 
Q 40.53125 6.109375 44.609375 11.75 
Q 48.6875 17.390625 48.6875 27.296875 
z
" id="DejaVuSans-70"/>
       <path d="M 18.3125 70.21875 
L 18.3125 54.6875 
L 36.8125 54.6875 
L 36.8125 47.703125 
L 18.3125 47.703125 
L 18.3125 18.015625 
Q 18.3125 11.328125 20.140625 9.421875 
Q 21.96875 7.515625 27.59375 7.515625 
L 36.8125 7.515625 
L 36.8125 0 
L 27.59375 0 
Q 17.1875 0 13.234375 3.875 
Q 9.28125 7.765625 9.28125 18.015625 
L 9.28125 47.703125 
L 2.6875 47.703125 
L 2.6875 54.6875 
L 9.28125 54.6875 
L 9.28125 70.21875 
z
" id="DejaVuSans-74"/>
      </defs>
      <g style="fill:#ffffff;" transform="translate(236.946875 257.140625)rotate(-90)scale(0.1 -0.1)">
       <use xlink:href="#DejaVuSans-70"/>
       <use x="63.476562" xlink:href="#DejaVuSans-61"/>
       <use x="124.755859" xlink:href="#DejaVuSans-74"/>
       <use x="163.964844" xlink:href="#DejaVuSans-72"/>
       <use x="205.078125" xlink:href="#DejaVuSans-69"/>
       <use x="232.861328" xlink:href="#DejaVuSans-63"/>
       <use x="287.841797" xlink:href="#DejaVuSans-69"/>
       <use x="315.625" xlink:href="#DejaVuSans-61"/>
      </g>
     </g>
    </g>
    <g id="xtick_11">
     <g id="line2d_11">
      <g>
       <use style="fill:#ffffff;stroke:#ffffff;stroke-width:0.8;" x="253.504605" xlink:href="#mc5f6506503" y="212.45"/>
      </g>
     </g>
     <g id="text_11">
      <!-- parecio -->
      <g style="fill:#ffffff;" transform="translate(256.26398 256.582812)rotate(-90)scale(0.1 -0.1)">
       <use xlink:href="#DejaVuSans-70"/>
       <use x="63.476562" xlink:href="#DejaVuSans-61"/>
       <use x="124.755859" xlink:href="#DejaVuSans-72"/>
       <use x="165.837891" xlink:href="#DejaVuSans-65"/>
       <use x="227.361328" xlink:href="#DejaVuSans-63"/>
       <use x="282.341797" xlink:href="#DejaVuSans-69"/>
       <use x="310.125" xlink:href="#DejaVuSans-6f"/>
      </g>
     </g>
    </g>
    <g id="xtick_12">
     <g id="line2d_12">
      <g>
       <use style="fill:#ffffff;stroke:#ffffff;stroke-width:0.8;" x="272.821711" xlink:href="#mc5f6506503" y="212.45"/>
      </g>
     </g>
     <g id="text_12">
      <!-- abrio -->
      <g style="fill:#ffffff;" transform="translate(275.581086 244.934375)rotate(-90)scale(0.1 -0.1)">
       <use xlink:href="#DejaVuSans-61"/>
       <use x="61.279297" xlink:href="#DejaVuSans-62"/>
       <use x="124.755859" xlink:href="#DejaVuSans-72"/>
       <use x="165.869141" xlink:href="#DejaVuSans-69"/>
       <use x="193.652344" xlink:href="#DejaVuSans-6f"/>
      </g>
     </g>
    </g>
    <g id="xtick_13">
     <g id="line2d_13">
      <g>
       <use style="fill:#ffffff;stroke:#ffffff;stroke-width:0.8;" x="292.138816" xlink:href="#mc5f6506503" y="212.45"/>
      </g>
     </g>
     <g id="text_13">
      <!-- fabrcio -->
      <g style="fill:#ffffff;" transform="translate(294.898191 253.95)rotate(-90)scale(0.1 -0.1)">
       <use xlink:href="#DejaVuSans-66"/>
       <use x="35.205078" xlink:href="#DejaVuSans-61"/>
       <use x="96.484375" xlink:href="#DejaVuSans-62"/>
       <use x="159.960938" xlink:href="#DejaVuSans-72"/>
       <use x="201.042969" xlink:href="#DejaVuSans-63"/>
       <use x="256.023438" xlink:href="#DejaVuSans-69"/>
       <use x="283.806641" xlink:href="#DejaVuSans-6f"/>
      </g>
     </g>
    </g>
    <g id="xtick_14">
     <g id="line2d_14">
      <g>
       <use style="fill:#ffffff;stroke:#ffffff;stroke-width:0.8;" x="311.455921" xlink:href="#mc5f6506503" y="212.45"/>
      </g>
     </g>
     <g id="text_14">
      <!-- fabrizzio -->
      <g style="fill:#ffffff;" transform="translate(314.215296 261.729688)rotate(-90)scale(0.1 -0.1)">
       <use xlink:href="#DejaVuSans-66"/>
       <use x="35.205078" xlink:href="#DejaVuSans-61"/>
       <use x="96.484375" xlink:href="#DejaVuSans-62"/>
       <use x="159.960938" xlink:href="#DejaVuSans-72"/>
       <use x="201.074219" xlink:href="#DejaVuSans-69"/>
       <use x="228.857422" xlink:href="#DejaVuSans-7a"/>
       <use x="281.347656" xlink:href="#DejaVuSans-7a"/>
       <use x="333.837891" xlink:href="#DejaVuSans-69"/>
       <use x="361.621094" xlink:href="#DejaVuSans-6f"/>
      </g>
     </g>
    </g>
    <g id="xtick_15">
     <g id="line2d_15">
      <g>
       <use style="fill:#ffffff;stroke:#ffffff;stroke-width:0.8;" x="330.773026" xlink:href="#mc5f6506503" y="212.45"/>
      </g>
     </g>
     <g id="text_15">
      <!-- frabicio -->
      <g style="fill:#ffffff;" transform="translate(333.532401 256.73125)rotate(-90)scale(0.1 -0.1)">
       <use xlink:href="#DejaVuSans-66"/>
       <use x="35.205078" xlink:href="#DejaVuSans-72"/>
       <use x="76.318359" xlink:href="#DejaVuSans-61"/>
       <use x="137.597656" xlink:href="#DejaVuSans-62"/>
       <use x="201.074219" xlink:href="#DejaVuSans-69"/>
       <use x="228.857422" xlink:href="#DejaVuSans-63"/>
       <use x="283.837891" xlink:href="#DejaVuSans-69"/>
       <use x="311.621094" xlink:href="#DejaVuSans-6f"/>
      </g>
     </g>
    </g>
    <g id="xtick_16">
     <g id="line2d_16">
      <g>
       <use style="fill:#ffffff;stroke:#ffffff;stroke-width:0.8;" x="350.090132" xlink:href="#mc5f6506503" y="212.45"/>
      </g>
     </g>
     <g id="text_16">
      <!-- fafricio -->
      <g style="fill:#ffffff;" transform="translate(352.849507 253.903125)rotate(-90)scale(0.1 -0.1)">
       <use xlink:href="#DejaVuSans-66"/>
       <use x="35.205078" xlink:href="#DejaVuSans-61"/>
       <use x="96.484375" xlink:href="#DejaVuSans-66"/>
       <use x="131.689453" xlink:href="#DejaVuSans-72"/>
       <use x="172.802734" xlink:href="#DejaVuSans-69"/>
       <use x="200.585938" xlink:href="#DejaVuSans-63"/>
       <use x="255.566406" xlink:href="#DejaVuSans-69"/>
       <use x="283.349609" xlink:href="#DejaVuSans-6f"/>
      </g>
     </g>
    </g>
    <g id="xtick_17">
     <g id="line2d_17">
      <g>
       <use style="fill:#ffffff;stroke:#ffffff;stroke-width:0.8;" x="369.407237" xlink:href="#mc5f6506503" y="212.45"/>
      </g>
     </g>
     <g id="text_17">
      <!-- fabrio -->
      <g style="fill:#ffffff;" transform="translate(372.166612 248.454687)rotate(-90)scale(0.1 -0.1)">
       <use xlink:href="#DejaVuSans-66"/>
       <use x="35.205078" xlink:href="#DejaVuSans-61"/>
       <use x="96.484375" xlink:href="#DejaVuSans-62"/>
       <use x="159.960938" xlink:href="#DejaVuSans-72"/>
       <use x="201.074219" xlink:href="#DejaVuSans-69"/>
       <use x="228.857422" xlink:href="#DejaVuSans-6f"/>
      </g>
     </g>
    </g>
    <g id="xtick_18">
     <g id="line2d_18">
      <g>
       <use style="fill:#ffffff;stroke:#ffffff;stroke-width:0.8;" x="388.724342" xlink:href="#mc5f6506503" y="212.45"/>
      </g>
     </g>
     <g id="text_18">
      <!-- fariceo -->
      <g style="fill:#ffffff;" transform="translate(391.483717 253.757812)rotate(-90)scale(0.1 -0.1)">
       <use xlink:href="#DejaVuSans-66"/>
       <use x="35.205078" xlink:href="#DejaVuSans-61"/>
       <use x="96.484375" xlink:href="#DejaVuSans-72"/>
       <use x="137.597656" xlink:href="#DejaVuSans-69"/>
       <use x="165.380859" xlink:href="#DejaVuSans-63"/>
       <use x="220.361328" xlink:href="#DejaVuSans-65"/>
       <use x="281.884766" xlink:href="#DejaVuSans-6f"/>
      </g>
     </g>
    </g>
    <g id="xtick_19">
     <g id="line2d_19">
      <g>
       <use style="fill:#ffffff;stroke:#ffffff;stroke-width:0.8;" x="408.041447" xlink:href="#mc5f6506503" y="212.45"/>
      </g>
     </g>
     <g id="text_19">
      <!-- aprecio -->
      <g style="fill:#ffffff;" transform="translate(410.800822 256.582812)rotate(-90)scale(0.1 -0.1)">
       <use xlink:href="#DejaVuSans-61"/>
       <use x="61.279297" xlink:href="#DejaVuSans-70"/>
       <use x="124.755859" xlink:href="#DejaVuSans-72"/>
       <use x="165.837891" xlink:href="#DejaVuSans-65"/>
       <use x="227.361328" xlink:href="#DejaVuSans-63"/>
       <use x="282.341797" xlink:href="#DejaVuSans-69"/>
       <use x="310.125" xlink:href="#DejaVuSans-6f"/>
      </g>
     </g>
    </g>
    <g id="text_20">
     <!-- Variación de 'Fabricio' -->
     <defs>
      <path d="M 28.609375 0 
L 0.78125 72.90625 
L 11.078125 72.90625 
L 34.1875 11.53125 
L 57.328125 72.90625 
L 67.578125 72.90625 
L 39.796875 0 
z
" id="DejaVuSans-56"/>
      <path d="M 30.609375 48.390625 
Q 23.390625 48.390625 19.1875 42.75 
Q 14.984375 37.109375 14.984375 27.296875 
Q 14.984375 17.484375 19.15625 11.84375 
Q 23.34375 6.203125 30.609375 6.203125 
Q 37.796875 6.203125 41.984375 11.859375 
Q 46.1875 17.53125 46.1875 27.296875 
Q 46.1875 37.015625 41.984375 42.703125 
Q 37.796875 48.390625 30.609375 48.390625 
z
M 30.609375 56 
Q 42.328125 56 49.015625 48.375 
Q 55.71875 40.765625 55.71875 27.296875 
Q 55.71875 13.875 49.015625 6.21875 
Q 42.328125 -1.421875 30.609375 -1.421875 
Q 18.84375 -1.421875 12.171875 6.21875 
Q 5.515625 13.875 5.515625 27.296875 
Q 5.515625 40.765625 12.171875 48.375 
Q 18.84375 56 30.609375 56 
z
M 37.40625 79.984375 
L 47.125 79.984375 
L 31.203125 61.625 
L 23.734375 61.625 
z
" id="DejaVuSans-f3"/>
      <path d="M 54.890625 33.015625 
L 54.890625 0 
L 45.90625 0 
L 45.90625 32.71875 
Q 45.90625 40.484375 42.875 44.328125 
Q 39.84375 48.1875 33.796875 48.1875 
Q 26.515625 48.1875 22.3125 43.546875 
Q 18.109375 38.921875 18.109375 30.90625 
L 18.109375 0 
L 9.078125 0 
L 9.078125 54.6875 
L 18.109375 54.6875 
L 18.109375 46.1875 
Q 21.34375 51.125 25.703125 53.5625 
Q 30.078125 56 35.796875 56 
Q 45.21875 56 50.046875 50.171875 
Q 54.890625 44.34375 54.890625 33.015625 
z
" id="DejaVuSans-6e"/>
      <path id="DejaVuSans-20"/>
      <path d="M 45.40625 46.390625 
L 45.40625 75.984375 
L 54.390625 75.984375 
L 54.390625 0 
L 45.40625 0 
L 45.40625 8.203125 
Q 42.578125 3.328125 38.25 0.953125 
Q 33.9375 -1.421875 27.875 -1.421875 
Q 17.96875 -1.421875 11.734375 6.484375 
Q 5.515625 14.40625 5.515625 27.296875 
Q 5.515625 40.1875 11.734375 48.09375 
Q 17.96875 56 27.875 56 
Q 33.9375 56 38.25 53.625 
Q 42.578125 51.265625 45.40625 46.390625 
z
M 14.796875 27.296875 
Q 14.796875 17.390625 18.875 11.75 
Q 22.953125 6.109375 30.078125 6.109375 
Q 37.203125 6.109375 41.296875 11.75 
Q 45.40625 17.390625 45.40625 27.296875 
Q 45.40625 37.203125 41.296875 42.84375 
Q 37.203125 48.484375 30.078125 48.484375 
Q 22.953125 48.484375 18.875 42.84375 
Q 14.796875 37.203125 14.796875 27.296875 
z
" id="DejaVuSans-64"/>
      <path d="M 17.921875 72.90625 
L 17.921875 45.796875 
L 9.625 45.796875 
L 9.625 72.90625 
z
" id="DejaVuSans-27"/>
      <path d="M 9.8125 72.90625 
L 51.703125 72.90625 
L 51.703125 64.59375 
L 19.671875 64.59375 
L 19.671875 43.109375 
L 48.578125 43.109375 
L 48.578125 34.8125 
L 19.671875 34.8125 
L 19.671875 0 
L 9.8125 0 
z
" id="DejaVuSans-46"/>
     </defs>
     <g style="fill:#ffffff;" transform="translate(178.907031 274.667188)scale(0.1 -0.1)">
      <use xlink:href="#DejaVuSans-56"/>
      <use x="68.298828" xlink:href="#DejaVuSans-61"/>
      <use x="129.578125" xlink:href="#DejaVuSans-72"/>
      <use x="170.691406" xlink:href="#DejaVuSans-69"/>
      <use x="198.474609" xlink:href="#DejaVuSans-61"/>
      <use x="259.753906" xlink:href="#DejaVuSans-63"/>
      <use x="314.734375" xlink:href="#DejaVuSans-69"/>
      <use x="342.517578" xlink:href="#DejaVuSans-f3"/>
      <use x="403.699219" xlink:href="#DejaVuSans-6e"/>
      <use x="467.078125" xlink:href="#DejaVuSans-20"/>
      <use x="498.865234" xlink:href="#DejaVuSans-64"/>
      <use x="562.341797" xlink:href="#DejaVuSans-65"/>
      <use x="623.865234" xlink:href="#DejaVuSans-20"/>
      <use x="655.652344" xlink:href="#DejaVuSans-27"/>
      <use x="683.142578" xlink:href="#DejaVuSans-46"/>
      <use x="740.521484" xlink:href="#DejaVuSans-61"/>
      <use x="801.800781" xlink:href="#DejaVuSans-62"/>
      <use x="865.277344" xlink:href="#DejaVuSans-72"/>
      <use x="906.390625" xlink:href="#DejaVuSans-69"/>
      <use x="934.173828" xlink:href="#DejaVuSans-63"/>
      <use x="989.154297" xlink:href="#DejaVuSans-69"/>
      <use x="1016.9375" xlink:href="#DejaVuSans-6f"/>
      <use x="1078.119141" xlink:href="#DejaVuSans-27"/>
     </g>
    </g>
   </g>
   <g id="matplotlib.axis_2">
    <g id="ytick_1">
     <g id="line2d_20">
      <defs>
       <path d="M 0 0 
L -3.5 0 
" id="m541cadfd0a" style="stroke:#ffffff;stroke-width:0.8;"/>
      </defs>
      <g>
       <use style="fill:#ffffff;stroke:#ffffff;stroke-width:0.8;" x="50.675" xlink:href="#m541cadfd0a" y="212.45"/>
      </g>
     </g>
     <g id="text_21">
      <!-- 0 -->
      <defs>
       <path d="M 31.78125 66.40625 
Q 24.171875 66.40625 20.328125 58.90625 
Q 16.5 51.421875 16.5 36.375 
Q 16.5 21.390625 20.328125 13.890625 
Q 24.171875 6.390625 31.78125 6.390625 
Q 39.453125 6.390625 43.28125 13.890625 
Q 47.125 21.390625 47.125 36.375 
Q 47.125 51.421875 43.28125 58.90625 
Q 39.453125 66.40625 31.78125 66.40625 
z
M 31.78125 74.21875 
Q 44.046875 74.21875 50.515625 64.515625 
Q 56.984375 54.828125 56.984375 36.375 
Q 56.984375 17.96875 50.515625 8.265625 
Q 44.046875 -1.421875 31.78125 -1.421875 
Q 19.53125 -1.421875 13.0625 8.265625 
Q 6.59375 17.96875 6.59375 36.375 
Q 6.59375 54.828125 13.0625 64.515625 
Q 19.53125 74.21875 31.78125 74.21875 
z
" id="DejaVuSans-30"/>
      </defs>
      <g style="fill:#ffffff;" transform="translate(37.3125 216.249219)scale(0.1 -0.1)">
       <use xlink:href="#DejaVuSans-30"/>
      </g>
     </g>
    </g>
    <g id="ytick_2">
     <g id="line2d_21">
      <g>
       <use style="fill:#ffffff;stroke:#ffffff;stroke-width:0.8;" x="50.675" xlink:href="#m541cadfd0a" y="183.653661"/>
      </g>
     </g>
     <g id="text_22">
      <!-- 100 -->
      <defs>
       <path d="M 12.40625 8.296875 
L 28.515625 8.296875 
L 28.515625 63.921875 
L 10.984375 60.40625 
L 10.984375 69.390625 
L 28.421875 72.90625 
L 38.28125 72.90625 
L 38.28125 8.296875 
L 54.390625 8.296875 
L 54.390625 0 
L 12.40625 0 
z
" id="DejaVuSans-31"/>
      </defs>
      <g style="fill:#ffffff;" transform="translate(24.5875 187.452879)scale(0.1 -0.1)">
       <use xlink:href="#DejaVuSans-31"/>
       <use x="63.623047" xlink:href="#DejaVuSans-30"/>
       <use x="127.246094" xlink:href="#DejaVuSans-30"/>
      </g>
     </g>
    </g>
    <g id="ytick_3">
     <g id="line2d_22">
      <g>
       <use style="fill:#ffffff;stroke:#ffffff;stroke-width:0.8;" x="50.675" xlink:href="#m541cadfd0a" y="154.857321"/>
      </g>
     </g>
     <g id="text_23">
      <!-- 200 -->
      <defs>
       <path d="M 19.1875 8.296875 
L 53.609375 8.296875 
L 53.609375 0 
L 7.328125 0 
L 7.328125 8.296875 
Q 12.9375 14.109375 22.625 23.890625 
Q 32.328125 33.6875 34.8125 36.53125 
Q 39.546875 41.84375 41.421875 45.53125 
Q 43.3125 49.21875 43.3125 52.78125 
Q 43.3125 58.59375 39.234375 62.25 
Q 35.15625 65.921875 28.609375 65.921875 
Q 23.96875 65.921875 18.8125 64.3125 
Q 13.671875 62.703125 7.8125 59.421875 
L 7.8125 69.390625 
Q 13.765625 71.78125 18.9375 73 
Q 24.125 74.21875 28.421875 74.21875 
Q 39.75 74.21875 46.484375 68.546875 
Q 53.21875 62.890625 53.21875 53.421875 
Q 53.21875 48.921875 51.53125 44.890625 
Q 49.859375 40.875 45.40625 35.40625 
Q 44.1875 33.984375 37.640625 27.21875 
Q 31.109375 20.453125 19.1875 8.296875 
z
" id="DejaVuSans-32"/>
      </defs>
      <g style="fill:#ffffff;" transform="translate(24.5875 158.65654)scale(0.1 -0.1)">
       <use xlink:href="#DejaVuSans-32"/>
       <use x="63.623047" xlink:href="#DejaVuSans-30"/>
       <use x="127.246094" xlink:href="#DejaVuSans-30"/>
      </g>
     </g>
    </g>
    <g id="ytick_4">
     <g id="line2d_23">
      <g>
       <use style="fill:#ffffff;stroke:#ffffff;stroke-width:0.8;" x="50.675" xlink:href="#m541cadfd0a" y="126.060982"/>
      </g>
     </g>
     <g id="text_24">
      <!-- 300 -->
      <defs>
       <path d="M 40.578125 39.3125 
Q 47.65625 37.796875 51.625 33 
Q 55.609375 28.21875 55.609375 21.1875 
Q 55.609375 10.40625 48.1875 4.484375 
Q 40.765625 -1.421875 27.09375 -1.421875 
Q 22.515625 -1.421875 17.65625 -0.515625 
Q 12.796875 0.390625 7.625 2.203125 
L 7.625 11.71875 
Q 11.71875 9.328125 16.59375 8.109375 
Q 21.484375 6.890625 26.8125 6.890625 
Q 36.078125 6.890625 40.9375 10.546875 
Q 45.796875 14.203125 45.796875 21.1875 
Q 45.796875 27.640625 41.28125 31.265625 
Q 36.765625 34.90625 28.71875 34.90625 
L 20.21875 34.90625 
L 20.21875 43.015625 
L 29.109375 43.015625 
Q 36.375 43.015625 40.234375 45.921875 
Q 44.09375 48.828125 44.09375 54.296875 
Q 44.09375 59.90625 40.109375 62.90625 
Q 36.140625 65.921875 28.71875 65.921875 
Q 24.65625 65.921875 20.015625 65.03125 
Q 15.375 64.15625 9.8125 62.3125 
L 9.8125 71.09375 
Q 15.4375 72.65625 20.34375 73.4375 
Q 25.25 74.21875 29.59375 74.21875 
Q 40.828125 74.21875 47.359375 69.109375 
Q 53.90625 64.015625 53.90625 55.328125 
Q 53.90625 49.265625 50.4375 45.09375 
Q 46.96875 40.921875 40.578125 39.3125 
z
" id="DejaVuSans-33"/>
      </defs>
      <g style="fill:#ffffff;" transform="translate(24.5875 129.860201)scale(0.1 -0.1)">
       <use xlink:href="#DejaVuSans-33"/>
       <use x="63.623047" xlink:href="#DejaVuSans-30"/>
       <use x="127.246094" xlink:href="#DejaVuSans-30"/>
      </g>
     </g>
    </g>
    <g id="ytick_5">
     <g id="line2d_24">
      <g>
       <use style="fill:#ffffff;stroke:#ffffff;stroke-width:0.8;" x="50.675" xlink:href="#m541cadfd0a" y="97.264642"/>
      </g>
     </g>
     <g id="text_25">
      <!-- 400 -->
      <defs>
       <path d="M 37.796875 64.3125 
L 12.890625 25.390625 
L 37.796875 25.390625 
z
M 35.203125 72.90625 
L 47.609375 72.90625 
L 47.609375 25.390625 
L 58.015625 25.390625 
L 58.015625 17.1875 
L 47.609375 17.1875 
L 47.609375 0 
L 37.796875 0 
L 37.796875 17.1875 
L 4.890625 17.1875 
L 4.890625 26.703125 
z
" id="DejaVuSans-34"/>
      </defs>
      <g style="fill:#ffffff;" transform="translate(24.5875 101.063861)scale(0.1 -0.1)">
       <use xlink:href="#DejaVuSans-34"/>
       <use x="63.623047" xlink:href="#DejaVuSans-30"/>
       <use x="127.246094" xlink:href="#DejaVuSans-30"/>
      </g>
     </g>
    </g>
    <g id="ytick_6">
     <g id="line2d_25">
      <g>
       <use style="fill:#ffffff;stroke:#ffffff;stroke-width:0.8;" x="50.675" xlink:href="#m541cadfd0a" y="68.468303"/>
      </g>
     </g>
     <g id="text_26">
      <!-- 500 -->
      <defs>
       <path d="M 10.796875 72.90625 
L 49.515625 72.90625 
L 49.515625 64.59375 
L 19.828125 64.59375 
L 19.828125 46.734375 
Q 21.96875 47.46875 24.109375 47.828125 
Q 26.265625 48.1875 28.421875 48.1875 
Q 40.625 48.1875 47.75 41.5 
Q 54.890625 34.8125 54.890625 23.390625 
Q 54.890625 11.625 47.5625 5.09375 
Q 40.234375 -1.421875 26.90625 -1.421875 
Q 22.3125 -1.421875 17.546875 -0.640625 
Q 12.796875 0.140625 7.71875 1.703125 
L 7.71875 11.625 
Q 12.109375 9.234375 16.796875 8.0625 
Q 21.484375 6.890625 26.703125 6.890625 
Q 35.15625 6.890625 40.078125 11.328125 
Q 45.015625 15.765625 45.015625 23.390625 
Q 45.015625 31 40.078125 35.4375 
Q 35.15625 39.890625 26.703125 39.890625 
Q 22.75 39.890625 18.8125 39.015625 
Q 14.890625 38.140625 10.796875 36.28125 
z
" id="DejaVuSans-35"/>
      </defs>
      <g style="fill:#ffffff;" transform="translate(24.5875 72.267522)scale(0.1 -0.1)">
       <use xlink:href="#DejaVuSans-35"/>
       <use x="63.623047" xlink:href="#DejaVuSans-30"/>
       <use x="127.246094" xlink:href="#DejaVuSans-30"/>
      </g>
     </g>
    </g>
    <g id="ytick_7">
     <g id="line2d_26">
      <g>
       <use style="fill:#ffffff;stroke:#ffffff;stroke-width:0.8;" x="50.675" xlink:href="#m541cadfd0a" y="39.671964"/>
      </g>
     </g>
     <g id="text_27">
      <!-- 600 -->
      <defs>
       <path d="M 33.015625 40.375 
Q 26.375 40.375 22.484375 35.828125 
Q 18.609375 31.296875 18.609375 23.390625 
Q 18.609375 15.53125 22.484375 10.953125 
Q 26.375 6.390625 33.015625 6.390625 
Q 39.65625 6.390625 43.53125 10.953125 
Q 47.40625 15.53125 47.40625 23.390625 
Q 47.40625 31.296875 43.53125 35.828125 
Q 39.65625 40.375 33.015625 40.375 
z
M 52.59375 71.296875 
L 52.59375 62.3125 
Q 48.875 64.0625 45.09375 64.984375 
Q 41.3125 65.921875 37.59375 65.921875 
Q 27.828125 65.921875 22.671875 59.328125 
Q 17.53125 52.734375 16.796875 39.40625 
Q 19.671875 43.65625 24.015625 45.921875 
Q 28.375 48.1875 33.59375 48.1875 
Q 44.578125 48.1875 50.953125 41.515625 
Q 57.328125 34.859375 57.328125 23.390625 
Q 57.328125 12.15625 50.6875 5.359375 
Q 44.046875 -1.421875 33.015625 -1.421875 
Q 20.359375 -1.421875 13.671875 8.265625 
Q 6.984375 17.96875 6.984375 36.375 
Q 6.984375 53.65625 15.1875 63.9375 
Q 23.390625 74.21875 37.203125 74.21875 
Q 40.921875 74.21875 44.703125 73.484375 
Q 48.484375 72.75 52.59375 71.296875 
z
" id="DejaVuSans-36"/>
      </defs>
      <g style="fill:#ffffff;" transform="translate(24.5875 43.471182)scale(0.1 -0.1)">
       <use xlink:href="#DejaVuSans-36"/>
       <use x="63.623047" xlink:href="#DejaVuSans-30"/>
       <use x="127.246094" xlink:href="#DejaVuSans-30"/>
      </g>
     </g>
    </g>
    <g id="text_28">
     <!-- Cantidad de apariciones en el texto -->
     <defs>
      <path d="M 64.40625 67.28125 
L 64.40625 56.890625 
Q 59.421875 61.53125 53.78125 63.8125 
Q 48.140625 66.109375 41.796875 66.109375 
Q 29.296875 66.109375 22.65625 58.46875 
Q 16.015625 50.828125 16.015625 36.375 
Q 16.015625 21.96875 22.65625 14.328125 
Q 29.296875 6.6875 41.796875 6.6875 
Q 48.140625 6.6875 53.78125 8.984375 
Q 59.421875 11.28125 64.40625 15.921875 
L 64.40625 5.609375 
Q 59.234375 2.09375 53.4375 0.328125 
Q 47.65625 -1.421875 41.21875 -1.421875 
Q 24.65625 -1.421875 15.125 8.703125 
Q 5.609375 18.84375 5.609375 36.375 
Q 5.609375 53.953125 15.125 64.078125 
Q 24.65625 74.21875 41.21875 74.21875 
Q 47.75 74.21875 53.53125 72.484375 
Q 59.328125 70.75 64.40625 67.28125 
z
" id="DejaVuSans-43"/>
      <path d="M 9.421875 75.984375 
L 18.40625 75.984375 
L 18.40625 0 
L 9.421875 0 
z
" id="DejaVuSans-6c"/>
      <path d="M 54.890625 54.6875 
L 35.109375 28.078125 
L 55.90625 0 
L 45.3125 0 
L 29.390625 21.484375 
L 13.484375 0 
L 2.875 0 
L 24.125 28.609375 
L 4.6875 54.6875 
L 15.28125 54.6875 
L 29.78125 35.203125 
L 44.28125 54.6875 
z
" id="DejaVuSans-78"/>
     </defs>
     <g style="fill:#ffffff;" transform="translate(18.507813 208.827344)rotate(-90)scale(0.1 -0.1)">
      <use xlink:href="#DejaVuSans-43"/>
      <use x="69.824219" xlink:href="#DejaVuSans-61"/>
      <use x="131.103516" xlink:href="#DejaVuSans-6e"/>
      <use x="194.482422" xlink:href="#DejaVuSans-74"/>
      <use x="233.691406" xlink:href="#DejaVuSans-69"/>
      <use x="261.474609" xlink:href="#DejaVuSans-64"/>
      <use x="324.951172" xlink:href="#DejaVuSans-61"/>
      <use x="386.230469" xlink:href="#DejaVuSans-64"/>
      <use x="449.707031" xlink:href="#DejaVuSans-20"/>
      <use x="481.494141" xlink:href="#DejaVuSans-64"/>
      <use x="544.970703" xlink:href="#DejaVuSans-65"/>
      <use x="606.494141" xlink:href="#DejaVuSans-20"/>
      <use x="638.28125" xlink:href="#DejaVuSans-61"/>
      <use x="699.560547" xlink:href="#DejaVuSans-70"/>
      <use x="763.037109" xlink:href="#DejaVuSans-61"/>
      <use x="824.316406" xlink:href="#DejaVuSans-72"/>
      <use x="865.429688" xlink:href="#DejaVuSans-69"/>
      <use x="893.212891" xlink:href="#DejaVuSans-63"/>
      <use x="948.193359" xlink:href="#DejaVuSans-69"/>
      <use x="975.976562" xlink:href="#DejaVuSans-6f"/>
      <use x="1037.158203" xlink:href="#DejaVuSans-6e"/>
      <use x="1100.537109" xlink:href="#DejaVuSans-65"/>
      <use x="1162.060547" xlink:href="#DejaVuSans-73"/>
      <use x="1214.160156" xlink:href="#DejaVuSans-20"/>
      <use x="1245.947266" xlink:href="#DejaVuSans-65"/>
      <use x="1307.470703" xlink:href="#DejaVuSans-6e"/>
      <use x="1370.849609" xlink:href="#DejaVuSans-20"/>
      <use x="1402.636719" xlink:href="#DejaVuSans-65"/>
      <use x="1464.160156" xlink:href="#DejaVuSans-6c"/>
      <use x="1491.943359" xlink:href="#DejaVuSans-20"/>
      <use x="1523.730469" xlink:href="#DejaVuSans-74"/>
      <use x="1562.939453" xlink:href="#DejaVuSans-65"/>
      <use x="1624.447266" xlink:href="#DejaVuSans-78"/>
      <use x="1683.626953" xlink:href="#DejaVuSans-74"/>
      <use x="1722.835938" xlink:href="#DejaVuSans-6f"/>
     </g>
    </g>
   </g>
   <g id="patch_22">
    <path d="M 50.675 212.45 
L 50.675 26.8 
" style="fill:none;stroke:#ffffff;stroke-linecap:square;stroke-linejoin:miter;stroke-width:0.8;"/>
   </g>
   <g id="patch_23">
    <path d="M 417.7 212.45 
L 417.7 26.8 
" style="fill:none;stroke:#ffffff;stroke-linecap:square;stroke-linejoin:miter;stroke-width:0.8;"/>
   </g>
   <g id="patch_24">
    <path d="M 50.675 212.45 
L 417.7 212.45 
" style="fill:none;stroke:#ffffff;stroke-linecap:square;stroke-linejoin:miter;stroke-width:0.8;"/>
   </g>
   <g id="patch_25">
    <path d="M 50.675 26.8 
L 417.7 26.8 
" style="fill:none;stroke:#ffffff;stroke-linecap:square;stroke-linejoin:miter;stroke-width:0.8;"/>
   </g>
   <g id="text_29">
    <!-- Variaciones de Fabricio con distancia menor a 3 -->
    <g style="fill:#ffffff;" transform="translate(89.9775 20.8)scale(0.12 -0.12)">
     <use xlink:href="#DejaVuSans-56"/>
     <use x="68.298828" xlink:href="#DejaVuSans-61"/>
     <use x="129.578125" xlink:href="#DejaVuSans-72"/>
     <use x="170.691406" xlink:href="#DejaVuSans-69"/>
     <use x="198.474609" xlink:href="#DejaVuSans-61"/>
     <use x="259.753906" xlink:href="#DejaVuSans-63"/>
     <use x="314.734375" xlink:href="#DejaVuSans-69"/>
     <use x="342.517578" xlink:href="#DejaVuSans-6f"/>
     <use x="403.699219" xlink:href="#DejaVuSans-6e"/>
     <use x="467.078125" xlink:href="#DejaVuSans-65"/>
     <use x="528.601562" xlink:href="#DejaVuSans-73"/>
     <use x="580.701172" xlink:href="#DejaVuSans-20"/>
     <use x="612.488281" xlink:href="#DejaVuSans-64"/>
     <use x="675.964844" xlink:href="#DejaVuSans-65"/>
     <use x="737.488281" xlink:href="#DejaVuSans-20"/>
     <use x="769.275391" xlink:href="#DejaVuSans-46"/>
     <use x="826.654297" xlink:href="#DejaVuSans-61"/>
     <use x="887.933594" xlink:href="#DejaVuSans-62"/>
     <use x="951.410156" xlink:href="#DejaVuSans-72"/>
     <use x="992.523438" xlink:href="#DejaVuSans-69"/>
     <use x="1020.306641" xlink:href="#DejaVuSans-63"/>
     <use x="1075.287109" xlink:href="#DejaVuSans-69"/>
     <use x="1103.070312" xlink:href="#DejaVuSans-6f"/>
     <use x="1164.251953" xlink:href="#DejaVuSans-20"/>
     <use x="1196.039062" xlink:href="#DejaVuSans-63"/>
     <use x="1251.019531" xlink:href="#DejaVuSans-6f"/>
     <use x="1312.201172" xlink:href="#DejaVuSans-6e"/>
     <use x="1375.580078" xlink:href="#DejaVuSans-20"/>
     <use x="1407.367188" xlink:href="#DejaVuSans-64"/>
     <use x="1470.84375" xlink:href="#DejaVuSans-69"/>
     <use x="1498.626953" xlink:href="#DejaVuSans-73"/>
     <use x="1550.726562" xlink:href="#DejaVuSans-74"/>
     <use x="1589.935547" xlink:href="#DejaVuSans-61"/>
     <use x="1651.214844" xlink:href="#DejaVuSans-6e"/>
     <use x="1714.59375" xlink:href="#DejaVuSans-63"/>
     <use x="1769.574219" xlink:href="#DejaVuSans-69"/>
     <use x="1797.357422" xlink:href="#DejaVuSans-61"/>
     <use x="1858.636719" xlink:href="#DejaVuSans-20"/>
     <use x="1890.423828" xlink:href="#DejaVuSans-6d"/>
     <use x="1987.835938" xlink:href="#DejaVuSans-65"/>
     <use x="2049.359375" xlink:href="#DejaVuSans-6e"/>
     <use x="2112.738281" xlink:href="#DejaVuSans-6f"/>
     <use x="2173.919922" xlink:href="#DejaVuSans-72"/>
     <use x="2215.033203" xlink:href="#DejaVuSans-20"/>
     <use x="2246.820312" xlink:href="#DejaVuSans-61"/>
     <use x="2308.099609" xlink:href="#DejaVuSans-20"/>
     <use x="2339.886719" xlink:href="#DejaVuSans-33"/>
    </g>
   </g>
  </g>
 </g>
 <defs>
  <clipPath id="p7c61ab230e">
   <rect height="185.65" width="367.025" x="50.675" y="26.8"/>
  </clipPath>
 </defs>
</svg>
